<?xml version="1.0" encoding="iso-8859-1"?>
<!-- Generator: Adobe Illustrator 19.0.0, SVG Export Plug-In . SVG Version: 6.00 Build 0)  -->
<svg version="1.1" id="Layer_1" xmlns="http://www.w3.org/2000/svg" xmlns:xlink="http://www.w3.org/1999/xlink" x="0px" y="0px"
	 viewBox="0 0 511.999 511.999" style="enable-background:new 0 0 511.999 511.999;" xml:space="preserve">
<circle style="fill:#0071BC;" cx="256.003" cy="256.003" r="249.99"/>
<path style="fill:#E09B2D;" d="M305.322,343.81v20.323h-25.47h-38.073h-25.47V343.81v-38.085v-20.323h25.47h38.073h25.47v20.323
	V343.81L305.322,343.81z M286.177,324.761c0-13.998-11.352-25.35-25.362-25.35c-14.01,0-25.362,11.352-25.362,25.35
	c0,14.01,11.352,25.362,25.362,25.362C274.824,350.123,286.177,338.771,286.177,324.761z"/>
<g>
	<rect x="194.227" y="305.729" style="fill:#C19752;" width="22.079" height="38.085"/>
	<polygon style="fill:#C19752;" points="279.851,263.334 279.851,285.401 241.778,285.401 241.778,263.334 248.392,263.334 
		273.237,263.334 	"/>
	<rect x="305.32" y="305.729" style="fill:#C19752;" width="22.079" height="38.085"/>
	<rect x="241.777" y="364.138" style="fill:#C19752;" width="38.073" height="22.067"/>
	<path style="fill:#C19752;" d="M284.253,143.161h-48.452c0,0,24.22-61.812,24.22-119.692
		C260.021,81.349,284.253,143.161,284.253,143.161z"/>
	<path style="fill:#C19752;" d="M315.255,236.108H206.374c0,0,23.053-9.56,23.053-48.8h6.374h50.027h6.374
		C292.202,226.547,315.255,236.108,315.255,236.108z"/>
</g>
<g>
	<polygon style="fill:#F7B239;" points="284.253,143.161 285.828,143.161 285.828,187.307 235.801,187.307 235.801,143.161 	"/>
	<polygon style="fill:#F7B239;" points="223.535,263.334 206.374,263.334 206.374,236.108 315.255,236.108 315.255,263.334 
		298.094,263.334 279.851,263.334 273.237,263.334 248.392,263.334 241.778,263.334 	"/>
</g>
<path style="fill:#E09B2D;" d="M277.855,505.05c-7.203,0.625-14.491,0.938-21.851,0.938c-4.101,0-8.177-0.096-12.23-0.301
	c-5.796-0.277-11.545-0.746-17.233-1.419c-6.807-0.794-13.541-1.876-20.167-3.211v-37.893h108.881v35.752
	c-6.626,1.611-13.349,2.958-20.167,4.029C289.4,503.848,283.651,504.545,277.855,505.05z"/>
<g>
	<polygon style="fill:#F7B239;" points="315.255,386.2 315.255,463.165 206.374,463.165 206.374,386.2 241.778,386.2 279.851,386.2 
			"/>
	<path style="fill:#F7B239;" d="M260.814,299.411c14.01,0,25.362,11.352,25.362,25.35c0,14.01-11.352,25.362-25.362,25.362
		c-14.01,0-25.362-11.352-25.362-25.362C235.452,310.763,246.805,299.411,260.814,299.411z"/>
	<polygon style="fill:#F7B239;" points="327.401,343.81 327.401,386.2 315.255,386.2 279.851,386.2 279.851,364.133 
		305.322,364.133 305.322,343.81 	"/>
	<polygon style="fill:#F7B239;" points="327.401,263.334 327.401,305.724 305.322,305.724 305.322,285.401 279.851,285.401 
		279.851,263.334 298.094,263.334 315.255,263.334 	"/>
	<polygon style="fill:#F7B239;" points="241.778,263.334 241.778,285.401 216.307,285.401 216.307,305.724 194.228,305.724 
		194.228,263.334 206.374,263.334 223.535,263.334 	"/>
	<polygon style="fill:#F7B239;" points="241.778,364.133 241.778,386.2 206.374,386.2 194.228,386.2 194.228,343.81 216.307,343.81 
		216.307,364.133 	"/>
</g>
<g>
	<path style="fill:#F2F2F2;" d="M157.393,151.699h-6.819v-6.819c0-3.32-2.693-6.013-6.013-6.013s-6.013,2.693-6.013,6.013v6.819
		h-6.807c-3.32,0-6.013,2.693-6.013,6.013s2.693,6.013,6.013,6.013h6.807v6.819c0,3.32,2.693,6.013,6.013,6.013
		s6.013-2.693,6.013-6.013v-6.819h6.819c3.32,0,6.013-2.693,6.013-6.013S160.714,151.699,157.393,151.699z"/>
	<path style="fill:#F2F2F2;" d="M422.764,254.316h-6.819v-6.807c0-3.32-2.691-6.013-6.013-6.013c-3.322,0-6.013,2.693-6.013,6.013
		v6.807h-6.819c-3.321,0-6.013,2.693-6.013,6.013c0,3.32,2.691,6.013,6.013,6.013h6.819v6.819c0,3.32,2.691,6.013,6.013,6.013
		c3.321,0,6.013-2.693,6.013-6.013v-6.819h6.819c3.322,0,6.013-2.693,6.013-6.013C428.777,257.008,426.085,254.316,422.764,254.316z
		"/>
	<path style="fill:#F2F2F2;" d="M152.583,396.219h-2.008v-1.996c0-3.32-2.693-6.013-6.013-6.013s-6.013,2.693-6.013,6.013v1.996
		h-1.996c-3.32,0-6.013,2.693-6.013,6.013s2.693,6.013,6.013,6.013h1.996v2.008c0,3.32,2.693,6.013,6.013,6.013
		s6.013-2.693,6.013-6.013v-2.008h2.008c3.32,0,6.013-2.693,6.013-6.013S155.904,396.219,152.583,396.219z"/>
</g>
<g>
	<path style="fill:#333333;" d="M255.999,0C114.841,0,0,114.842,0,255.999s114.841,255.999,255.999,255.999
		s255.999-114.842,255.999-255.999S397.159,0,255.999,0z M241.811,149.17h38.006v32.119h-38.006V149.17z M245.188,137.145
		c3.877-11.109,10.679-32.364,15.626-57.476c4.947,25.112,11.75,46.366,15.626,57.476H245.188z M235.259,193.315h0.54h50.032h0.54
		c1.061,17.736,6.746,29.374,12.593,36.778h-76.298C228.512,222.689,234.199,211.051,235.259,193.315z M285.868,380.188v-10.046
		h19.46c3.322,0,6.013-2.693,6.013-6.013v-14.309h10.046v30.368H285.868z M273.842,269.343v10.046h-26.056v-10.046H273.842z
		 M299.314,291.416v66.699h-76.999v-66.699L299.314,291.416L299.314,291.416z M273.842,370.141v10.046h-26.056v-10.046H273.842z
		 M321.387,337.793H311.34v-26.056h10.046V337.793z M321.387,299.713H311.34v-14.309c0-3.32-2.691-6.013-6.013-6.013h-19.46v-10.046
		h35.519V299.713z M212.381,242.121h96.866v15.197h-5.14v-3.4c0-3.32-2.691-6.013-6.013-6.013c-3.321,0-6.013,2.693-6.013,6.013v3.4
		h-12.828v-3.4c0-3.32-2.691-6.013-6.013-6.013c-3.321,0-6.013,2.693-6.013,6.013v3.4H254.4v-3.4c0-3.32-2.693-6.013-6.013-6.013
		s-6.013,2.693-6.013,6.013v3.4h-12.828v-3.4c0-3.32-2.693-6.013-6.013-6.013s-6.013,2.693-6.013,6.013v3.4h-5.14V242.121z
		 M235.76,269.343v10.046h-19.459c-3.32,0-6.013,2.693-6.013,6.013v14.309h-10.046v-30.368H235.76z M200.241,311.738h10.046v26.056
		h-10.046V311.738z M200.241,349.819h10.046v14.309c0,3.32,2.693,6.013,6.013,6.013h19.459v10.046H200.24v-30.368H200.241z
		 M309.241,392.213v64.939h-96.855v-64.939H309.241z M249.787,499.895v-12.679c0-3.32-2.693-6.013-6.013-6.013
		s-6.013,2.693-6.013,6.013v12.076c-1.741-0.13-3.475-0.285-5.207-0.451v-11.625c0-3.32-2.693-6.013-6.013-6.013
		s-6.013,2.693-6.013,6.013v10.17c-2.727-0.399-5.444-0.835-8.141-1.323v-26.886h96.855v24.928
		c-2.697,0.602-5.412,1.159-8.141,1.672v-8.561c0-3.32-2.691-6.013-6.013-6.013c-3.322,0-6.013,2.693-6.013,6.013v10.507
		c-1.729,0.236-3.466,0.451-5.207,0.649v-11.156c0-3.32-2.691-6.013-6.013-6.013c-3.322,0-6.013,2.693-6.013,6.013v12.229
		c-5.24,0.338-10.519,0.528-15.841,0.528C253.923,499.974,251.852,499.947,249.787,499.895z M321.266,491.096v-98.882h6.133
		c3.322,0,6.013-2.693,6.013-6.013V263.33c0-3.32-2.691-6.013-6.013-6.013h-6.127v-21.21c0-2.48-1.503-4.607-3.646-5.527l0,0
		c-0.002-0.001-0.008-0.004-0.011-0.005c-0.007-0.004-0.016-0.007-0.023-0.011c-1.084-0.488-19.372-9.253-19.372-43.261
		c0-3.32-2.691-6.013-6.013-6.013h-0.364v-38.132c0-1.806-25.016-69.839-25.016-119.682c0-3.32-2.691-6.013-6.013-6.013
		c-3.322,0-6.013,2.693-6.013,6.013c0,49.843-25.016,117.876-25.016,119.682v38.132h-0.363c-3.32,0-6.013,2.693-6.013,6.013
		c0,34.3-18.615,42.927-19.345,43.25l0.001,0.001c-2.177,0.904-3.71,3.047-3.71,5.552v21.21h-6.127c-3.32,0-6.013,2.693-6.013,6.013
		V386.2c0,3.32,2.693,6.013,6.013,6.013h6.132v101.354C92.553,468.324,12.026,371.393,12.026,255.999
		c0-134.528,109.446-243.974,243.974-243.974s243.974,109.446,243.974,243.974C499.974,367.93,424.204,462.483,321.266,491.096z"/>
	<path style="fill:#333333;" d="M260.814,356.136c17.299,0,31.371-14.072,31.371-31.37s-14.072-31.371-31.371-31.371
		c-17.298,0-31.37,14.074-31.37,31.371S243.516,356.136,260.814,356.136z M260.814,305.42c10.667,0,19.346,8.679,19.346,19.346
		c0,10.667-8.679,19.345-19.346,19.345c-10.667,0-19.345-8.678-19.345-19.345C241.47,314.099,250.146,305.42,260.814,305.42z"/>
	<path style="fill:#333333;" d="M226.541,453.144c3.32,0,6.013-2.693,6.013-6.013v-41.689c0-3.32-2.693-6.013-6.013-6.013
		s-6.013,2.693-6.013,6.013v41.689C220.528,450.451,223.22,453.144,226.541,453.144z"/>
	<path style="fill:#333333;" d="M243.778,453.144c3.32,0,6.013-2.693,6.013-6.013v-41.689c0-3.32-2.693-6.013-6.013-6.013
		s-6.013,2.693-6.013,6.013v41.689C237.765,450.451,240.457,453.144,243.778,453.144z"/>
	<path style="fill:#333333;" d="M277.851,453.144c3.321,0,6.013-2.693,6.013-6.013v-41.689c0-3.32-2.691-6.013-6.013-6.013
		c-3.322,0-6.013,2.693-6.013,6.013v41.689C271.838,450.451,274.53,453.144,277.851,453.144z"/>
	<path style="fill:#333333;" d="M295.088,453.144c3.321,0,6.013-2.693,6.013-6.013v-41.689c0-3.32-2.691-6.013-6.013-6.013
		c-3.322,0-6.013,2.693-6.013,6.013v41.689C289.075,450.451,291.766,453.144,295.088,453.144z"/>
</g>
<g>
</g>
<g>
</g>
<g>
</g>
<g>
</g>
<g>
</g>
<g>
</g>
<g>
</g>
<g>
</g>
<g>
</g>
<g>
</g>
<g>
</g>
<g>
</g>
<g>
</g>
<g>
</g>
<g>
</g>
</svg>
