<svg xmlns="http://www.w3.org/2000/svg" viewBox="0 0 512 512"><title>Artboard 105</title><g id="Colosseum"><path d="M234.66667,192s170.66666,0,256,42.66667V448s-85.33334,21.33333-256,21.33333Z" style="fill:#b37900"/><rect x="448" y="341.33333" width="42.66667" height="21.33333" style="fill:#9e6611"/><polygon points="405.333 448 362.667 448 362.667 405.333 341.333 384 341.333 320 298.667 298.667 298.667 213.333 341.333 213.333 341.333 272.292 384 293.625 384 366.333 405.333 387.667 405.333 448" style="fill:#9e6611"/><path d="M476.625,362.125c-.62513-.20833-63.89583-20.79167-167.29167-20.79167V320C416.5,320,480.6875,340.98958,483.375,341.88542Z" style="fill:#cb8c01"/><path d="M341.33333,490.66667l21.33334-.00008V405.33333L341.33333,384V319.99927l-42.66666-21.3326V192l-64-21.33467V64L191.99834,21.33333s-106.665,21.33334-170.665,85.33334V469.33333S128,490.66667,341.33333,490.66667Z" style="fill:#e0bb69"/><rect x="149.33333" y="256" width="42.66667" height="21.33333" style="fill:#d6a436"/><rect x="234.66667" y="213.33333" width="42.66667" height="21.33333" style="fill:#cb8c01"/><rect x="64" y="256" width="42.66667" height="21.33333" style="fill:#d6a436"/><rect x="106.66667" y="405.33333" width="42.66667" height="21.33333" style="fill:#d6a436"/><rect x="320" y="405.33333" width="42.66667" height="21.33333" style="fill:#d6a436"/><rect x="64" y="362.66667" width="42.66667" height="21.33333" style="fill:#cb8c01"/><rect x="149.33333" y="362.66667" width="42.66667" height="21.33333" style="fill:#cb8c01"/><rect x="234.66667" y="362.66667" width="42.66667" height="21.33333" style="fill:#cb8c01"/><rect x="298.66667" y="213.33333" width="42.66667" height="21.33333" style="fill:#935d00"/><rect x="341.33333" y="341.33333" width="42.66667" height="21.33333" style="fill:#935d00"/><rect x="448" y="426.66667" width="42.66667" height="21.33333" style="fill:#9e6611"/><rect x="405.33333" y="384" width="42.66667" height="21.33333" style="fill:#9e6611"/><rect x="405.33333" y="298.66667" width="42.66667" height="21.33333" style="fill:#9e6611"/><rect x="469.33333" y="277.33333" width="21.33333" height="21.33333" style="fill:#9e6611"/><rect x="384" y="234.66667" width="42.66667" height="21.33333" style="fill:#9e6611"/><path d="M39.54167,146.20833,24.45833,131.125c2.70834-2.70833,67.54155-66.53125,176.125-88.25L204.75,63.79167C102.4375,84.26042,40.16667,145.59375,39.54167,146.20833Z" style="fill:#d6a436"/><path d="M35.95833,255.23958l-7.91666-19.8125C32.47917,233.65625,137.85417,192,245.33333,192v21.33333C142.0625,213.33333,37,254.82292,35.95833,255.23958Z" style="fill:#d6a436"/><polygon points="362.667 480 341.333 480 341.333 414.167 320 392.833 320 333.187 277.333 311.854 277.333 207.375 213.333 186.042 213.333 72.833 181.063 40.573 196.146 25.49 234.667 64 234.667 170.667 298.667 192 298.667 298.667 341.333 320 341.333 384 362.667 405.333 362.667 480" style="fill:#d6a436"/><path d="M39.375,118.86458l-14.75-15.41666c54.625-52.22917,137.41667-75.04167,161.5-80.79167l4.95833,20.75C168.3125,48.84375,90.125,70.34375,39.375,118.86458Z" style="fill:#efddb4"/><path d="M85.33331,405.33333h0a21.33331,21.33331,0,0,1,21.33331,21.33331V448a0,0,0,0,1,0,0H64a0,0,0,0,1,0,0V426.66665A21.33331,21.33331,0,0,1,85.33331,405.33333Z" style="fill:#a84400"/><path d="M149.33331,384h0a21.33331,21.33331,0,0,1,21.33331,21.33331V448a0,0,0,0,1,0,0H128a0,0,0,0,1,0,0V405.33331A21.33331,21.33331,0,0,1,149.33331,384Z" style="fill:#a84400"/><path d="M213.33331,362.66667h0A21.33331,21.33331,0,0,1,234.66667,384v64a0,0,0,0,1,0,0H192a0,0,0,0,1,0,0V384A21.33331,21.33331,0,0,1,213.33331,362.66667Z" style="fill:#a84400"/><path d="M277.33331,362.66667h0A21.33331,21.33331,0,0,1,298.66667,384v64a0,0,0,0,1,0,0H256a0,0,0,0,1,0,0V384A21.33331,21.33331,0,0,1,277.33331,362.66667Z" style="fill:#a84400"/><path d="M426.66667,384h42.66667a0,0,0,0,1,0,0v21.33335A21.33331,21.33331,0,0,1,448,426.66667h0a21.33331,21.33331,0,0,1-21.33331-21.33331V384A0,0,0,0,1,426.66667,384Z" transform="translate(896 810.66667) rotate(180)" style="fill:#851f00"/><path d="M362.66667,362.66667h42.66667a0,0,0,0,1,0,0v42.66669A21.33331,21.33331,0,0,1,384,426.66667h0a21.33331,21.33331,0,0,1-21.33331-21.33331V362.66667a0,0,0,0,1,0,0Z" transform="translate(768 789.33333) rotate(180)" style="fill:#851f00"/><path d="M426.66667,256h42.66667a0,0,0,0,1,0,0v21.33335A21.33331,21.33331,0,0,1,448,298.66667h0a21.33331,21.33331,0,0,1-21.33331-21.33331V256a0,0,0,0,1,0,0Z" transform="translate(896 554.66667) rotate(-180)" style="fill:#851f00"/><path d="M362.66667,234.66667h42.66667a0,0,0,0,1,0,0v42.66669A21.33331,21.33331,0,0,1,384,298.66667h0a21.33331,21.33331,0,0,1-21.33331-21.33331V234.66667a0,0,0,0,1,0,0Z" transform="translate(768 533.33333) rotate(180)" style="fill:#851f00"/><path d="M298.66667,234.66667h42.66667a0,0,0,0,1,0,0v42.66669A21.33331,21.33331,0,0,1,320,298.66667h0a21.33331,21.33331,0,0,1-21.33331-21.33331V234.66667a0,0,0,0,1,0,0Z" transform="translate(640 533.33333) rotate(180)" style="fill:#851f00"/><path d="M85.33331,256h0a21.33331,21.33331,0,0,1,21.33331,21.33331v21.33335a0,0,0,0,1,0,0H64a0,0,0,0,1,0,0V277.33331A21.33331,21.33331,0,0,1,85.33331,256Z" style="fill:#a84400"/><path d="M149.33331,234.66667h0A21.33331,21.33331,0,0,1,170.66667,256v42.66669a0,0,0,0,1,0,0H128a0,0,0,0,1,0,0V256a21.33331,21.33331,0,0,1,21.33331-21.33331Z" style="fill:#a84400"/><path d="M213.33331,213.33333h0a21.33331,21.33331,0,0,1,21.33331,21.33331v64a0,0,0,0,1,0,0H192a0,0,0,0,1,0,0v-64A21.33331,21.33331,0,0,1,213.33331,213.33333Z" style="fill:#a84400"/><path d="M298.66667,234.66665a21.33332,21.33332,0,0,0-21.33332-21.33332h0A21.33331,21.33331,0,0,0,256,234.66665v64h42.66667" style="fill:#a84400"/><path d="M85.33331,128h0a21.33331,21.33331,0,0,1,21.33331,21.33331v21.33335a0,0,0,0,1,0,0H64a0,0,0,0,1,0,0V149.33331A21.33331,21.33331,0,0,1,85.33331,128Z" style="fill:#a84400"/><path d="M149.33331,106.66667h0A21.33331,21.33331,0,0,1,170.66667,128v42.66669a0,0,0,0,1,0,0H128a0,0,0,0,1,0,0V128a21.33331,21.33331,0,0,1,21.33331-21.33331Z" style="fill:#a84400"/><path d="M213.33331,85.33333h0a21.33331,21.33331,0,0,1,21.33331,21.33331v64a0,0,0,0,1,0,0H192a0,0,0,0,1,0,0v-64A21.33331,21.33331,0,0,1,213.33331,85.33333Z" style="fill:#a84400"/><path d="M35.95833,361.90625l-7.91666-19.8125c3.8125-1.52083,95.47916-37.44792,270.29166-42.78125L299,320.64583C127.91667,325.85417,36.85417,361.54167,35.95833,361.90625Z" style="fill:#efddb4"/><path d="M35.95833,233.90625l-7.91666-19.8125c3.27083-1.3125,81.8125-32.26042,205.875-41.11458l1.5,21.27083C114.95833,202.86458,36.72917,233.59375,35.95833,233.90625Z" style="fill:#efddb4"/><rect x="128" y="256" width="21.33333" height="42.66667" style="fill:#851f00"/><rect x="298.66667" y="256" width="21.33333" height="42.66667" style="fill:#701600"/><rect x="362.66667" y="256" width="21.33333" height="42.66667" style="fill:#701600"/><rect x="362.66667" y="384" width="21.33333" height="42.66667" style="fill:#701600"/><rect x="128" y="128" width="21.33333" height="42.66667" style="fill:#851f00"/><rect x="192" y="106.66667" width="21.33333" height="64" style="fill:#851f00"/><rect x="192" y="234.66667" width="21.33333" height="64" style="fill:#851f00"/><rect x="192" y="384" width="21.33333" height="64" style="fill:#851f00"/><rect x="256" y="384" width="21.33333" height="64" style="fill:#851f00"/><rect x="256" y="234.66667" width="21.33333" height="64" style="fill:#851f00"/><rect x="128" y="405.33333" width="21.33333" height="42.66667" style="fill:#851f00"/><rect x="64" y="426.66667" width="21.33333" height="21.33333" style="fill:#851f00"/><rect x="64" y="277.33333" width="21.33333" height="21.33333" style="fill:#851f00"/><rect x="64" y="149.33333" width="21.33333" height="21.33333" style="fill:#851f00"/><rect x="426.66667" y="277.33333" width="21.33333" height="21.33333" style="fill:#701600"/><rect x="426.66667" y="405.33333" width="21.33333" height="21.33333" style="fill:#701600"/><path d="M35.375,383.45833l-6.75-20.23958C33.91667,361.44792,159.75,320,288,320v21.33333C163.29167,341.33333,36.64583,383.03125,35.375,383.45833Z" style="fill:#d6a436"/><rect x="21.33333" y="405.33333" width="42.66667" height="21.33333" style="fill:#d6a436"/><rect x="64" y="448" width="42.66667" height="21.33333" style="fill:#d6a436"/><rect x="21.33333" y="298.66667" width="42.66667" height="21.33333" style="fill:#d6a436"/><rect x="42.66667" y="170.66667" width="42.66667" height="21.33333" style="fill:#d6a436"/><rect x="149.33333" y="85.33333" width="42.66667" height="21.33333" style="fill:#cb8c01"/><rect x="85.33333" y="85.33333" width="42.66667" height="21.33333" style="fill:#cb8c01"/><rect x="149.33333" y="448" width="42.66667" height="21.33333" style="fill:#d6a436"/><rect x="234.66667" y="448" width="42.66667" height="21.33333" style="fill:#d6a436"/><rect x="320" y="448" width="42.66667" height="21.33333" style="fill:#d6a436"/><rect x="341.33333" y="405.33333" width="21.33333" height="21.33333" style="fill:#cb8c01"/><rect x="341.33333" y="448" width="21.33333" height="21.33333" style="fill:#cb8c01"/></g></svg>