<svg xmlns="http://www.w3.org/2000/svg" viewBox="0 0 512 512"><title>Artboard 102</title><g id="Eiffel"><circle cx="170.66667" cy="234.66667" r="128" style="fill:#c1bcc3"/><ellipse cx="128" cy="192" rx="48.26898" ry="36.20174" transform="translate(-98.27417 146.74517) rotate(-45)" style="fill:#928a97"/><ellipse cx="117.33333" cy="245.33333" rx="37.6503" ry="25.1002" transform="translate(-139.11073 154.82367) rotate(-45)" style="fill:#928a97"/><path d="M75.625,287.04167c-13.72917-13.72917-15.33333-35.59375-4.65625-56.05209-13.39583-23.35416-7.0625-56.26041,16.34375-79.67708C102.125,136.5,121.32292,128,139.97917,128v21.33333c-13.04167,0-26.73959,6.21875-37.58334,17.0625C84.80208,184,80.1875,209.28125,91.89583,223.9375l4.83334,6.05208-4.26042,6.46875c-8.84375,13.4375-9.55208,27.70834-1.76042,35.5Z" style="fill:#d5d2d7"/><path d="M162.13151,157.86849c-14.138-14.138-40.88021-10.31771-59.73047,8.53255s-22.67057,45.59245-8.53255,59.73047a27.19505,27.19505,0,0,0,4.19141,3.19792c-13.35287,14.5-16.77735,33.19791-7.349,42.6263,9.80208,9.80208,29.668,5.82943,44.37109-8.8737,12.737-12.73828,17.38151-29.32552,12.03386-39.91276a63.87372,63.87372,0,0,0,6.48307-5.57161C172.44922,198.7474,176.26953,172.00651,162.13151,157.86849Z" style="fill:#928a97"/><path d="M90.70833,271.95833c-9.3125-9.3125-6.08333-28.03125,7.35417-42.625L113.75,243.79167c-6.32292,6.86458-7.34375,13.0625-7,14.55208Z" style="fill:#7a7081"/><path d="M97.47917,228.94792a22.38171,22.38171,0,0,1-3.59375-2.79167C79.73958,212,83.58333,185.21875,102.39583,166.39583c18.09375-18.08333,46.08334-22.14583,59.72917-8.54166l-15.0625,15.10416c-1.89583-1.89583-4.89583-2.29166-7.08333-2.29166-7.20834,0-15.83334,4.14583-22.5,10.8125-10.54167,10.55208-13.30209,24.79166-8.5625,29.54166Z" style="fill:#7a7081"/><ellipse cx="192" cy="234.66667" rx="26.97886" ry="13.48943" transform="translate(-109.69889 204.49678) rotate(-45)" style="fill:#7a7081"/><path d="M182.46094,246.46094a50.44882,50.44882,0,0,0-6.80729,8.4414c6.14843,2.457,16.72916-1.54166,25.88541-10.69791a50.44127,50.44127,0,0,0,6.80729-8.44011C202.19792,233.30729,191.61719,237.30469,182.46094,246.46094Z" style="fill:#928a97"/><path d="M170.66667,362.60417a127.62655,127.62655,0,0,1-90.51042-37.42709l30.16667-30.16666a85.33895,85.33895,0,0,0,120.6875-120.6875l30.16666-30.16667a127.93754,127.93754,0,0,1-90.51041,218.44792Z" style="fill:#928a97"/><ellipse cx="192" cy="138.66667" rx="22.12672" ry="8.89327" transform="translate(-32.0177 61.79979) rotate(-16.89909)" style="fill:#7a7081"/><rect x="256" y="21.33333" width="21.33333" height="32" style="fill:#d29e79"/><path d="M126.55208,485.375l-18.4375-10.75C109.59375,472.09375,256,219.125,256,53.33333h21.33333C277.33333,224.90625,132.70833,474.82292,126.55208,485.375Z" style="fill:#a84400"/><rect x="266.66781" y="189.41183" width="21.33105" height="90.50967" transform="translate(-84.70534 264.83656) rotate(-45)" style="fill:#851f00"/><path d="M406.78125,485.375C400.625,474.82292,256,224.90625,256,53.33333h21.33333c0,165.86459,146.40625,418.76042,147.88542,421.29167Z" style="fill:#a84400"/><rect x="210.74517" y="224.00114" width="90.50967" height="21.33105" transform="translate(-90.95373 249.75161) rotate(-45)" style="fill:#851f00"/><rect x="202.66667" y="298.66667" width="42.66667" height="21.33333" style="fill:#851f00"/><rect x="288" y="298.66667" width="42.66667" height="21.33333" style="fill:#851f00"/><rect x="256" y="352" width="21.33333" height="42.66667" style="fill:#851f00"/><path d="M169.54167,484.77083l-19.08334-9.54166,24.3125-48.63542c26.15625-52.30208,50.47917-106.45833,72.28125-160.9375l1.17709-2.94792,19.8125,7.91667-1.17709,2.94792c-22.03125,55.04166-46.59375,109.72916-73.01041,162.5625Z" style="fill:#a84400"/><path d="M363.79167,484.77083l-24.3125-48.63541C313.0625,383.30208,288.5,328.61458,266.46875,273.57292l-1.17708-2.94792,19.8125-7.91667,1.17708,2.94792c21.80208,54.47917,46.125,108.63542,72.28125,160.9375l24.3125,48.63542Z" style="fill:#a84400"/><rect x="245.33333" y="170.66667" width="42.66667" height="21.33333" style="fill:#851f00"/><rect x="341.33333" y="428" width="51.33333" height="21.33333" style="fill:#851f00"/><rect x="192" y="256" width="149.33333" height="21.33333" style="fill:#ba6b33"/><rect x="234.66667" y="42.66667" width="64" height="21.33333" style="fill:#ba6b33"/><rect x="192" y="256" width="21.33333" height="21.33333" style="fill:#d9ad8e"/><rect x="234.66667" y="42.66667" width="21.33333" height="21.33333" style="fill:#d9ad8e"/><rect x="160" y="384" width="213.33333" height="21.33333" style="fill:#851f00"/><rect x="140.66667" y="426.66667" width="49.27083" height="21.33333" style="fill:#851f00"/><rect x="149.33333" y="341.33333" width="234.66667" height="21.33333" style="fill:#ba6b33"/><path d="M362.66667,480H341.33333A74.66667,74.66667,0,1,0,192,480H170.66667a96,96,0,0,1,192,0Z" style="fill:#851f00"/><rect x="85.33333" y="469.33333" width="128" height="21.33333" style="fill:#ba6b33"/><rect x="320" y="469.33333" width="128" height="21.33333" style="fill:#ba6b33"/><rect x="149.33333" y="341.33333" width="21.33333" height="21.33333" style="fill:#d9ad8e"/><rect x="256" y="64" width="21.33333" height="21.33333" style="fill:#851f00"/></g></svg>