<?xml version="1.0" encoding="iso-8859-1"?>
<!-- Generator: Adobe Illustrator 19.0.0, SVG Export Plug-In . SVG Version: 6.00 Build 0)  -->
<svg version="1.1" id="Layer_1" xmlns="http://www.w3.org/2000/svg" xmlns:xlink="http://www.w3.org/1999/xlink" x="0px" y="0px"
	 viewBox="0 0 511.999 511.999" style="enable-background:new 0 0 511.999 511.999;" xml:space="preserve">
<circle style="fill:#D7F3FF;" cx="256.003" cy="256.003" r="249.99"/>
<g>
	<path style="fill:#4D4D4D;" d="M215.117,411.851v53.719h-9.621v35.319c-51.602-10.595-97.408-37.087-132.054-74.126h19.013v-14.106
		h21.646v21.646h32.073v-48.909h18.435v52.913h19.241v-26.457L215.117,411.851L215.117,411.851z"/>
	<path style="fill:#4D4D4D;" d="M437.195,397.42h24.953c-33.672,49.029-84.396,85.431-143.611,100.679V465.57h-9.621v-48.103h17.642
		v-11.22h12.819v-12.831h16.836v39.288h24.857v-20.047h19.241V376.58h36.883L437.195,397.42L437.195,397.42z"/>
</g>
<polygon style="fill:#CCCCCC;" points="270.832,100.795 270.832,172.949 253.202,172.949 253.202,100.795 262.017,100.795 "/>
<g>
	<polygon style="fill:#E6E6E6;" points="284.469,172.949 284.469,189.785 239.565,189.785 239.565,172.949 253.202,172.949 
		270.832,172.949 	"/>
	<polygon style="fill:#E6E6E6;" points="247.201,223.457 247.201,272.353 221.527,272.353 221.527,223.457 229.548,223.457 	"/>
	<polygon style="fill:#E6E6E6;" points="302.508,223.457 302.508,272.353 276.833,272.353 276.833,223.457 294.486,223.457 	"/>
	<path style="fill:#E6E6E6;" d="M318.538,465.57v32.53c-13.493,3.475-27.431,5.857-41.705,7.023V465.57h32.085H318.538z"/>
	<path style="fill:#E6E6E6;" d="M247.201,465.57v40.262c-14.238-0.493-28.176-2.177-41.705-4.943V465.57h9.621L247.201,465.57
		L247.201,465.57z"/>
	<polygon style="fill:#E6E6E6;" points="247.201,272.353 247.201,465.57 215.117,465.57 215.117,411.851 215.117,272.353 
		221.527,272.353 	"/>
</g>
<path style="fill:#CCCCCC;" d="M294.486,189.785v33.672h-17.654v48.896V465.57v39.553c-6.867,0.577-13.818,0.866-20.828,0.866
	c-2.946,0-5.881-0.048-8.803-0.156V465.57V272.353v-48.896h-17.654v-33.672h10.017h44.904H294.486z"/>
<polygon style="fill:#E6E6E6;" points="308.917,417.467 308.917,465.57 276.833,465.57 276.833,272.353 302.508,272.353 
	308.917,272.353 "/>
<path style="fill:#333333;" d="M256.001,0C114.842,0,0,114.842,0,255.999s114.842,255.999,255.999,255.999
	s255.999-114.842,255.999-255.999S397.159,0,256.001,0z M256.001,12.026c134.528,0,243.974,109.446,243.974,243.974
	c0,50.062-15.164,96.645-41.13,135.413h-15.641v-14.831c0-3.32-2.693-6.013-6.013-6.013h-36.879c-3.32,0-6.013,2.693-6.013,6.013
	v30.064H381.07c-3.32,0-6.013,2.693-6.013,6.013v14.03H362.23v-33.271c0-3.32-2.693-6.013-6.013-6.013h-16.836
	c-3.32,0-6.013,2.693-6.013,6.013v6.815h-6.815c-3.32,0-6.013,2.693-6.013,6.013v5.211h-11.63V272.354
	c0-3.32-2.693-6.013-6.013-6.013H302.5v-42.888c0-3.32-2.693-6.013-6.013-6.013h-2.005v-27.659c0-3.32-2.693-6.013-6.013-6.013
	h-4.008v-10.823c0-3.32-2.693-6.013-6.013-6.013h-7.616v-66.141c0-3.32-2.693-6.013-6.013-6.013h-2.806V31.042
	c0-3.32-2.693-6.013-6.013-6.013c-3.32,0-6.013,2.693-6.013,6.013v63.736h-2.806c-3.32,0-6.013,2.693-6.013,6.013v66.141h-7.616
	c-3.32,0-6.013,2.693-6.013,6.013v10.823h-4.008c-3.32,0-6.013,2.693-6.013,6.013v27.659h-2.005c-3.32,0-6.013,2.693-6.013,6.013
	v42.888h-0.4c-3.32,0-6.013,2.693-6.013,6.013v133.489h-19.24c-3.32,0-6.013,2.693-6.013,6.013V432.3h-7.215v-46.9
	c0-3.32-2.693-6.013-6.013-6.013H146.17c-3.32,0-6.013,2.693-6.013,6.013v42.892h-20.043v-15.633c0-3.32-2.693-6.013-6.013-6.013
	H92.455c-3.32,0-6.013,2.693-6.013,6.013v8.097H76.224c-39.842-43.44-64.198-101.304-64.198-164.756
	C12.026,121.472,121.472,12.026,256.001,12.026z M114.101,440.316h32.069c3.32,0,6.013-2.693,6.013-6.013v-42.891h6.413v46.9
	c0,3.32,2.693,6.013,6.013,6.013h19.241c3.32,0,6.013-2.693,6.013-6.013v-20.444h13.227v41.689h-3.608
	c-3.32,0-6.013,2.693-6.013,6.013v26.267c-40.117-10.646-76.21-31.269-105.441-59.057h4.427c3.32,0,6.013-2.693,6.013-6.013v-8.097
	h9.621v15.633C108.088,437.625,110.78,440.316,114.101,440.316z M215.114,278.367h0.36c0.014,0,0.026,0.004,0.041,0.004h19.658
	v181.188h-20.059V278.367z M205.494,471.583h29.679v27.492c-10.079-0.856-19.984-2.323-29.679-4.373V471.583z M235.177,266.341
	h-13.649v-36.876h13.649V266.341z M253.196,106.804h5.612v60.128h-5.612L253.196,106.804L253.196,106.804z M272.437,178.958v4.81
	h-32.87v-4.81H272.437z M290.476,229.466v36.876h-13.649v-36.876H290.476z M276.827,471.583h29.679v23.121
	c-9.695,2.049-19.601,3.516-29.679,4.373V471.583L276.827,471.583z M276.827,459.557V278.371h19.662
	c0.014,0,0.026-0.004,0.041-0.004h0.356v181.191h-20.059V459.557z M247.199,499.799l0.004-276.346c0-3.32-2.693-6.013-6.013-6.013
	h-11.644v-21.646h52.913v21.646h-11.645c-3.32,0-6.013,2.693-6.013,6.013v276.346c-2.922,0.105-5.853,0.176-8.8,0.176
	C253.053,499.974,250.121,499.902,247.199,499.799z M318.532,491.838V465.57c0-3.32-2.693-6.013-6.013-6.013h-3.608V423.48h17.643
	c3.32,0,6.013-2.693,6.013-6.013v-5.211h6.815c3.32,0,6.013-2.693,6.013-6.013v-6.815h4.81V432.7c0,3.32,2.693,6.013,6.013,6.013
	h24.854c3.32,0,6.013-2.693,6.013-6.013v-14.03h13.228c3.32,0,6.013-2.693,6.013-6.013v-30.064h24.854v14.831
	c0,3.32,2.693,6.013,6.013,6.013h13.056C417.82,446.057,371.715,477.724,318.532,491.838z"/>
<g>
</g>
<g>
</g>
<g>
</g>
<g>
</g>
<g>
</g>
<g>
</g>
<g>
</g>
<g>
</g>
<g>
</g>
<g>
</g>
<g>
</g>
<g>
</g>
<g>
</g>
<g>
</g>
<g>
</g>
</svg>
