<svg xmlns="http://www.w3.org/2000/svg" viewBox="0 0 512 512"><title>Artboard 122</title><g id="Tower_Bridge" data-name="Tower Bridge"><polygon points="213.333 170.667 213.333 213.333 405.333 234.667 405.333 213.333 213.333 170.667" style="fill:#677e8f"/><polygon points="21.333 384 21.333 448 490.667 362.667 490.667 341.333 21.333 384" style="fill:#556e81"/><polygon points="234.667 409.212 256 405.333 256 362.667 234.667 364.605 234.667 409.212" style="fill:#456075"/><polygon points="405.333 378.182 426.667 374.303 426.667 347.151 405.333 349.091 405.333 378.182" style="fill:#456075"/><rect x="320" y="128" width="21.33333" height="42.66667" style="fill:#d6a436"/><rect x="384" y="128" width="21.33333" height="42.66667" style="fill:#d6a436"/><rect x="64" y="106.66667" width="42.66667" height="42.66667" style="fill:#e0bb69"/><rect x="85.33333" y="106.66667" width="21.33333" height="42.66667" style="fill:#cb8c01"/><rect x="192" y="106.66667" width="42.66667" height="42.66667" style="fill:#d6a436"/><rect x="213.33333" y="106.66667" width="21.33333" height="42.66667" style="fill:#cb8c01"/><path d="M38.63542,297.01042l-11.4375-18C68.28125,252.90625,85.33333,209.45833,85.33333,192h21.33334C106.66667,216.91667,85.04167,267.53125,38.63542,297.01042Z" style="fill:#456075"/><path d="M40.3125,339.5625,28.375,321.875C82.58333,285.26042,85.33333,207.26042,85.33333,192h21.33334C106.66667,209.15625,103.46875,296.89583,40.3125,339.5625Z" style="fill:#456075"/><path d="M490.66667,298.66667C413.1875,298.66667,320,233.15625,320,192h21.33333c0,21.96875,75.9375,85.33333,149.33334,85.33333Z" style="fill:#456075"/><path d="M490.66667,341.33333C363.28125,341.33333,320,204.09375,320,192h10.66667l10.64583-.41667C342.6875,204.66667,384.34375,320,490.66667,320Z" style="fill:#456075"/><polygon points="341.333 149.333 362.667 85.333 384 149.333 341.333 149.333" style="fill:#3d3f3c"/><rect x="298.66667" y="384" width="64" height="42.66667" style="fill:#d6a436"/><rect x="341.33333" y="384" width="21.33333" height="42.66667" style="fill:#9e6611"/><rect x="362.66667" y="384" width="64" height="42.66667" style="fill:#d6a436"/><polygon points="405.333 405.333 384 405.333 384 362.667 341.333 362.667 341.333 405.333 320 405.333 320 149.333 405.333 149.333 405.333 405.333" style="fill:#d6a436"/><rect x="320" y="128" width="21.33333" height="256" style="fill:#e0bb69"/><rect x="384" y="128" width="21.33333" height="256" style="fill:#e0bb69"/><rect x="341.33333" y="192" width="42.66667" height="21.33333" style="fill:#3d3f3c"/><rect x="384" y="256" width="21.33333" height="21.33333" style="fill:#e9cf95"/><polygon points="384 320 362.667 320 341.333 320 341.333 341.333 341.333 384 362.667 384 362.667 341.333 384 341.333 384 320" style="fill:#cb8c01"/><path d="M362.66665,341.33333h0A21.33331,21.33331,0,0,1,384,362.66665V384a0,0,0,0,1,0,0H341.33333a0,0,0,0,1,0,0V362.66665A21.33331,21.33331,0,0,1,362.66665,341.33333Z" style="fill:#3d3f3c"/><rect x="341.33333" y="362.66667" width="21.33333" height="21.33333" style="fill:#2c2e2b"/><rect x="320" y="149.33333" width="85.33333" height="21.33333" style="fill:#e0bb69"/><polygon points="490.667 362.667 405.333 370.424 405.333 399.516 490.667 384 490.667 362.667" style="fill:#7f92a0"/><rect x="405.33333" y="384" width="21.33333" height="42.66667" style="fill:#cb8c01"/><rect x="320" y="213.33333" width="85.33333" height="21.33333" style="fill:#e0bb69"/><rect x="320" y="213.33333" width="21.33333" height="21.33333" style="fill:#f4e8cc"/><rect x="320" y="149.33333" width="21.33333" height="21.33333" style="fill:#f4e8cc"/><rect x="341.33333" y="192" width="21.33333" height="21.33333" style="fill:#2c2e2b"/><rect x="384" y="213.33333" width="21.33333" height="21.33333" style="fill:#f4e8cc"/><polygon points="405.333 213.333 298.667 189.63 298.667 222.815 405.333 234.667 405.333 213.333" style="fill:#677e8f"/><rect x="384" y="149.33333" width="21.33333" height="21.33333" style="fill:#f4e8cc"/><rect x="341.33333" y="256" width="42.66667" height="21.33333" style="fill:#3d3f3c"/><rect x="341.33333" y="256" width="21.33333" height="21.33333" style="fill:#2c2e2b"/><polygon points="320 106.667 320 128 341.333 128 320 106.667" style="fill:#242623"/><polygon points="405.333 106.667 384 128 405.333 128 405.333 106.667" style="fill:#242623"/><polygon points="64 106.667 64 64 106.667 106.667 64 106.667" style="fill:#2c2e2b"/><polygon points="192 106.667 234.667 64 234.667 106.667 192 106.667" style="fill:#2c2e2b"/><polygon points="106.667 128 149.333 21.333 192 128 106.667 128" style="fill:#242623"/><polygon points="106.667 128 149.333 21.333 170.667 128 106.667 128" style="fill:#777976"/><polygon points="234.667 128 64 128 64 490.667 106.667 490.667 106.667 405.333 192 405.333 192 490.667 234.667 490.667 234.667 128" style="fill:#d6a436"/><rect x="106.66667" y="320" width="42.66667" height="21.33333" style="fill:#e0bb69"/><rect x="106.66667" y="192" width="21.33333" height="21.33333" style="fill:#e0bb69"/><polygon points="192 149.333 106.667 149.333 85.333 149.333 85.333 170.667 85.333 213.333 106.667 213.333 106.667 170.667 192 170.667 192 149.333" style="fill:#cb8c01"/><polygon points="106.667 234.667 85.333 234.667 85.333 256 85.333 405.333 106.667 405.333 106.667 256 192 256 192 234.667 106.667 234.667" style="fill:#cb8c01"/><path d="M192,309.33333H170.66667v-32A21.36113,21.36113,0,0,0,149.33333,256V234.66667A42.70886,42.70886,0,0,1,192,277.33333Z" style="fill:#e9cf95"/><path d="M192,213.33333H170.66667V192a21.36112,21.36112,0,0,0-21.33334-21.33333V149.33333A42.70887,42.70887,0,0,1,192,192Z" style="fill:#e9cf95"/><path d="M213.33333,437.33333H192v-32a42.70886,42.70886,0,0,0-42.66667-42.66666V341.33333a64.07,64.07,0,0,1,64,64Z" style="fill:#e9cf95"/><rect x="192" y="128" width="42.66667" height="362.66667" style="fill:#e0bb69"/><rect x="192" y="149.33333" width="42.66667" height="21.33333" style="fill:#d6a436"/><rect x="213.33333" y="128" width="21.33333" height="362.66667" style="fill:#cb8c01"/><rect x="64" y="128" width="21.33333" height="362.66667" style="fill:#e9cf95"/><polyline points="64 149.333 64 128 234.667 128 234.667 149.333" style="fill:#e0bb69"/><polyline points="64 234.667 64 213.333 234.667 213.333 234.667 234.667" style="fill:#e0bb69"/><rect x="64" y="128" width="42.66667" height="21.33333" style="fill:#e9cf95"/><rect x="192" y="127.99998" width="42.66667" height="21.33333" style="fill:#efddb4"/><rect x="192" y="213.33333" width="42.66667" height="21.33333" style="fill:#efddb4"/><rect x="213.33333" y="127.99998" width="21.33333" height="21.33333" style="fill:#e0bb69"/><rect x="213.33333" y="213.33333" width="21.33333" height="21.33333" style="fill:#e0bb69"/><rect x="64" y="128" width="42.66667" height="21.33333" style="fill:#efddb4"/><rect x="64" y="149.33333" width="42.66667" height="21.33333" style="fill:#e0bb69"/><rect x="64" y="213.33333" width="42.66667" height="21.33333" style="fill:#efddb4"/><rect x="64" y="128" width="21.33333" height="21.33333" style="fill:#f4e8cc"/><rect x="64" y="213.33333" width="21.33333" height="21.33333" style="fill:#f4e8cc"/><path d="M149.33331,256h0a21.33331,21.33331,0,0,1,21.33331,21.33331v21.33335a0,0,0,0,1,0,0H128a0,0,0,0,1,0,0V277.33331A21.33331,21.33331,0,0,1,149.33331,256Z" style="fill:#3d3f3c"/><rect x="128" y="277.33333" width="21.33333" height="21.33333" style="fill:#2c2e2b"/><path d="M149.33331,170.66667h0A21.33331,21.33331,0,0,1,170.66667,192v21.33335a0,0,0,0,1,0,0H128a0,0,0,0,1,0,0V192A21.33331,21.33331,0,0,1,149.33331,170.66667Z" style="fill:#3d3f3c"/><path d="M149.33331,85.33333h0a21.33331,21.33331,0,0,1,21.33331,21.33331V128a0,0,0,0,1,0,0H128a0,0,0,0,1,0,0V106.66665A21.33331,21.33331,0,0,1,149.33331,85.33333Z" style="fill:#3d3f3c"/><path d="M149.33329,362.66667h.00009A42.66662,42.66662,0,0,1,192,405.33329v21.33338a0,0,0,0,1,0,0H106.66667a0,0,0,0,1,0,0V405.33329A42.66662,42.66662,0,0,1,149.33329,362.66667Z" style="fill:#3d3f3c"/><path d="M128,426.66667H106.66667V405.33333a42.70885,42.70885,0,0,1,42.66666-42.66666V384A21.36113,21.36113,0,0,0,128,405.33333Z" style="fill:#2c2e2b"/><rect x="213.33333" y="149.3333" width="21.33333" height="21.33333" style="fill:#b37900"/><rect x="192" y="234.66667" width="42.66667" height="21.33333" style="fill:#d6a436"/><rect x="64" y="234.66663" width="21.33333" height="21.33333" style="fill:#e0bb69"/><rect x="213.33333" y="234.66664" width="21.33333" height="21.33333" style="fill:#b37900"/><rect x="85.33333" y="128" width="21.33333" height="21.33333" style="fill:#d6a436"/><rect x="85.33333" y="213.33333" width="21.33333" height="21.33333" style="fill:#d6a436"/><rect x="21.33333" y="426.66667" width="128" height="64" style="fill:#e9cf95"/><rect x="64" y="426.66667" width="42.66667" height="21.33333" style="fill:#efddb4"/><rect x="106.66667" y="426.66667" width="42.66667" height="64" style="fill:#cb8c01"/><rect x="128" y="426.66667" width="21.33333" height="21.33333" style="fill:#d6a436"/><rect x="149.33333" y="426.66667" width="128" height="64" style="fill:#e0bb69"/><rect x="234.66667" y="426.66667" width="42.66667" height="64" style="fill:#cb8c01"/><path d="M21.33333,384V362.66667c86.42709,0,192-78.75,192-170.66667h21.33334C234.66667,298.35417,117.95833,384,21.33333,384Z" style="fill:#7f92a0"/><path d="M21.33333,341.33333V320c110.3125,0,192-101.25,192-128h21.33334C234.66667,228.09375,146.14583,341.33333,21.33333,341.33333Z" style="fill:#7f92a0"/><path d="M475.22917,340.20833C384,294.59375,384,225.30208,384,192h21.33333c0,31.25,0,89.40625,79.4375,129.125Z" style="fill:#93a3af"/><path d="M476.625,298.11458C408.33333,275.35417,384,228.375,384,192h21.33333c0,28.9375,20.5,66.69792,78.04167,85.88542Z" style="fill:#93a3af"/><rect x="21.33333" y="469.33333" width="42.66667" height="21.33333" style="fill:#efddb4"/><rect x="149.33333" y="448" width="42.66667" height="21.33333" style="fill:#e9cf95"/><rect x="106.66667" y="469.33333" width="42.66667" height="21.33333" style="fill:#d6a436"/><rect x="234.66667" y="469.33333" width="42.66667" height="21.33333" style="fill:#d6a436"/><polygon points="384 372.363 234.667 385.939 234.667 430.546 384 403.395 384 372.363" style="fill:#7f92a0"/><rect x="234.66667" y="426.66667" width="21.33333" height="21.33333" style="fill:#d6a436"/><rect x="213.33333" y="469.33333" width="21.33333" height="21.33333" style="fill:#e9cf95"/><rect x="213.33333" y="426.66667" width="21.33333" height="21.33333" style="fill:#e9cf95"/><rect x="85.33333" y="234.66667" width="21.33333" height="21.33333" style="fill:#9e6611"/><rect x="85.33333" y="149.33333" width="21.33333" height="21.33333" style="fill:#9e6611"/><rect x="341.33333" y="170.66667" width="42.66667" height="21.33333" style="fill:#cb8c01"/><rect x="341.33333" y="170.66667" width="21.33333" height="21.33333" style="fill:#9e6611"/><rect x="341.33333" y="234.66667" width="42.66667" height="21.33333" style="fill:#cb8c01"/><rect x="341.33333" y="234.66667" width="21.33333" height="21.33333" style="fill:#9e6611"/><rect x="341.33333" y="320" width="21.33333" height="21.33333" style="fill:#9e6611"/><rect x="128" y="192" width="21.33333" height="21.33333" style="fill:#2c2e2b"/><rect x="128" y="106.66667" width="21.33333" height="21.33333" style="fill:#2c2e2b"/><rect x="213.33333" y="320" width="21.33333" height="21.33333" style="fill:#d6a436"/><rect x="213.33333" y="277.33333" width="21.33333" height="21.33333" style="fill:#d6a436"/><rect x="192" y="298.66667" width="21.33333" height="21.33333" style="fill:#e9cf95"/><rect x="384" y="362.66667" width="21.33333" height="21.33333" style="fill:#e9cf95"/><polygon points="21.333 405.333 21.333 469.333 213.333 434.424 213.333 387.879 21.333 405.333" style="fill:#7f92a0"/><rect x="341.33333" y="277.33333" width="42.66667" height="21.33333" style="fill:#f4e8cc"/><rect x="320" y="298.66667" width="21.33333" height="21.33333" style="fill:#e9cf95"/><rect x="384" y="320" width="21.33333" height="21.33333" style="fill:#e9cf95"/><rect x="320" y="256" width="21.33333" height="21.33333" style="fill:#e9cf95"/><rect x="384" y="405.33333" width="21.33333" height="21.33333" style="fill:#e0bb69"/><polygon points="184.071 169.045 196.476 170.423 196.476 148.371 184.071 145.614 184.071 169.045" style="fill:#556e81"/></g></svg>