<svg xmlns="http://www.w3.org/2000/svg" viewBox="0 0 512 512"><title>Artboard 126</title><g id="White_House" data-name="White House"><rect x="234.66667" y="21.33333" width="21.33333" height="149.33333" style="fill:#edf0f2"/><rect x="234.66667" y="106.66667" width="21.33333" height="21.33333" style="fill:#ccd4da"/><rect x="149.33333" y="149.33333" width="213.33333" height="64" style="fill:#b8c3cb"/><rect x="149.33333" y="170.66667" width="213.33333" height="42.66667" style="fill:#adb9c2"/><rect x="298.66667" y="149.33333" width="64" height="64" transform="translate(661.33333 362.66667) rotate(180)" style="fill:#adb9c2"/><rect x="298.66667" y="170.66667" width="64" height="21.33333" style="fill:#93a3af"/><rect x="42.66667" y="192" width="426.66667" height="298.66667" style="fill:#b8c3cb"/><rect x="42.66667" y="298.66667" width="426.66667" height="21.33333" style="fill:#93a3af"/><rect x="405.33333" y="192" width="64" height="298.66667" transform="translate(874.66667 682.66667) rotate(180)" style="fill:#93a3af"/><rect x="405.33333" y="298.66667" width="64" height="21.33333" style="fill:#7f92a0"/><rect x="42.66667" y="192" width="426.66667" height="42.66667" style="fill:#93a3af"/><rect x="405.33333" y="192" width="64" height="42.66667" style="fill:#7f92a0"/><rect x="341.33333" y="234.66667" width="21.33333" height="21.33333" style="fill:#403248"/><rect x="149.33333" y="234.66667" width="21.33333" height="21.33333" style="fill:#403248"/><rect x="192" y="234.66667" width="21.33333" height="21.33333" style="fill:#403248"/><rect x="298.66667" y="234.66667" width="21.33333" height="21.33333" style="fill:#403248"/><path d="M490.66667,256H21.33333v21.33333s21.33341,0,21.33341,21.33334H469.33333c0-21.33334,21.33334-21.33334,21.33334-21.33334Z" style="fill:#adb9c2"/><rect x="21.33333" y="256" width="469.33333" height="21.33333" style="fill:#ccd4da"/><path d="M362.66667,298.66667H149.33333V256S192,234.66667,256,234.66667,362.66667,256,362.66667,256Z" style="fill:#dfe4e7"/><path d="M362.66667,288H341.33333V270.30208C325.60417,264.63542,295.14583,256,256,256V234.66667c49.47917,0,86.4375,12.875,100.02083,18.41666l6.64584,2.69792Z" style="fill:#ccd4da"/><rect x="21.33333" y="192" width="469.33333" height="21.33333" style="fill:#ccd4da"/><rect x="426.66667" y="256" width="64" height="21.33333" transform="translate(917.33333 533.33333) rotate(180)" style="fill:#b8c3cb"/><rect x="426.66667" y="192" width="64" height="21.33333" transform="translate(917.33333 405.33333) rotate(180)" style="fill:#adb9c2"/><rect x="64" y="320" width="42.66667" height="64" style="fill:#403248"/><rect x="64" y="320" width="21.33333" height="64" style="fill:#2f2038"/><rect x="64" y="405.33333" width="42.66667" height="64" style="fill:#403248"/><rect x="170.66667" y="405.33333" width="42.66667" height="64" style="fill:#5f5366"/><rect x="170.66667" y="405.33333" width="21.33333" height="64" style="fill:#403248"/><rect x="170.66667" y="405.33333" width="42.66667" height="21.33333" style="fill:#403248"/><rect x="234.66667" y="405.33333" width="42.66667" height="64" style="fill:#5f5366"/><rect x="298.66667" y="405.33333" width="42.66667" height="64" style="fill:#5f5366"/><rect x="234.66667" y="405.33333" width="21.33333" height="64" style="fill:#403248"/><rect x="234.66667" y="405.33333" width="42.66667" height="21.33333" style="fill:#403248"/><rect x="298.66667" y="405.33333" width="21.33333" height="64" style="fill:#403248"/><rect x="298.66667" y="405.33333" width="42.66667" height="21.33333" style="fill:#403248"/><rect x="170.66667" y="320" width="42.66667" height="64" style="fill:#5f5366"/><rect x="234.66667" y="320" width="42.66667" height="64" style="fill:#5f5366"/><rect x="298.66667" y="320" width="42.66667" height="64" style="fill:#5f5366"/><rect x="128" y="320" width="42.66667" height="64" style="fill:#2f2038"/><rect x="128" y="405.33333" width="42.66667" height="64" style="fill:#2f2038"/><rect x="405.33333" y="320" width="42.66667" height="64" style="fill:#403248"/><rect x="405.33333" y="405.33333" width="42.66667" height="64" style="fill:#403248"/><rect x="341.33333" y="320" width="42.66667" height="64" style="fill:#403248"/><rect x="341.33333" y="405.33333" width="42.66667" height="64" style="fill:#403248"/><rect x="149.33333" y="277.33333" width="21.33333" height="213.33333" style="fill:#dfe4e7"/><path d="M128,298.66667c21.33333,0,21.33333,21.33333,21.33333,21.33333h21.33334s0-21.33333,21.33333-21.33333S213.33333,320,213.33333,320h21.33334s0-21.33333,21.33333-21.33333S277.33333,320,277.33333,320h21.33334s0-21.33333,21.33333-21.33333S341.33333,320,341.33333,320h21.33334s0-21.33333,21.33333-21.33333V277.33333H128Z" style="fill:#dfe4e7"/><rect x="341.33333" y="277.33333" width="21.33333" height="213.33333" style="fill:#dfe4e7"/><rect x="213.33333" y="277.33333" width="21.33333" height="213.33333" style="fill:#dfe4e7"/><rect x="277.33333" y="277.33333" width="21.33333" height="213.33333" style="fill:#dfe4e7"/><path d="M368.5625,318.875c-39.85417-19.92708-101.29167-20.20833-101.89583-20.20833V277.33333c2.70833,0,67.02083.26042,111.4375,22.45834Z" style="fill:#ccd4da"/><path d="M384,469.33333C362.66667,469.33333,362.66667,448,362.66667,448H341.33333s0,21.33333-21.33333,21.33333S298.66667,448,298.66667,448H277.33338s0,21.33333-21.33338,21.33333S234.66667,448,234.66667,448H213.33333s0,21.33333-21.33339,21.33333S170.66667,448,170.66667,448H149.33333s0,21.33333-21.33333,21.33333v21.33334H384Z" style="fill:#dfe4e7"/><path d="M384,277.33333S341.33333,256,256,256s-128,21.33333-128,21.33333v21.33334s64-21.33334,128-21.33334,128,21.33334,128,21.33334Z" style="fill:#edf0f2"/><path d="M341.33333,128c-21.33333,0-64-21.33333-64-21.33333H234.66667v-64h42.66664S320,64,341.33333,64Z" style="fill:#9d3100"/><rect x="234.66667" y="42.66667" width="42.66667" height="42.66667" style="fill:#dfe4e7"/><rect x="64" y="234.66667" width="21.33333" height="21.33333" style="fill:#403248"/><rect x="85.33333" y="234.66667" width="21.33333" height="21.33333" style="fill:#dfe4e7"/><rect x="362.66667" y="234.66667" width="21.33333" height="21.33333" style="fill:#dfe4e7"/><rect x="128" y="234.66667" width="21.33333" height="21.33333" style="fill:#dfe4e7"/><rect x="106.66667" y="234.66667" width="21.33333" height="21.33333" style="fill:#403248"/><rect x="384" y="234.66667" width="21.33333" height="21.33333" style="fill:#403248"/><rect x="426.66667" y="234.66667" width="21.33333" height="21.33333" style="fill:#403248"/><rect x="64" y="320" width="42.66667" height="21.33333" style="fill:#2f2038"/><rect x="170.66667" y="320" width="21.33333" height="64" style="fill:#403248"/><rect x="170.66667" y="320" width="42.66667" height="21.33333" style="fill:#403248"/><rect x="234.66667" y="320" width="21.33333" height="64" style="fill:#403248"/><rect x="234.66667" y="320" width="42.66667" height="21.33333" style="fill:#403248"/><rect x="298.66667" y="320" width="21.33333" height="64" style="fill:#403248"/><rect x="298.66667" y="320" width="42.66667" height="21.33333" style="fill:#403248"/><rect x="64" y="405.33333" width="21.33333" height="64" style="fill:#2f2038"/><rect x="64" y="405.33333" width="42.66667" height="21.33333" style="fill:#2f2038"/><rect x="405.33333" y="320" width="21.33333" height="64" style="fill:#2f2038"/><rect x="405.33333" y="320" width="42.66667" height="21.33333" style="fill:#2f2038"/><rect x="405.33333" y="405.33333" width="21.33333" height="64" style="fill:#2f2038"/><rect x="405.33333" y="405.33333" width="42.66667" height="21.33333" style="fill:#2f2038"/><rect x="106.66667" y="320" width="21.33333" height="64" style="fill:#dfe4e7"/><rect x="106.66667" y="405.33333" width="21.33333" height="64" style="fill:#dfe4e7"/><rect x="384" y="320" width="21.33333" height="64" style="fill:#edf0f2"/><rect x="384" y="405.33333" width="21.33333" height="64" style="fill:#edf0f2"/><rect x="448" y="320" width="21.33333" height="64" style="fill:#b8c3cb"/><rect x="448" y="405.33333" width="21.33333" height="64" style="fill:#b8c3cb"/></g></svg>